<?xml version="1.0" encoding="UTF-8"?>
<svg id="Layer_1" data-name="Layer 1" xmlns="http://www.w3.org/2000/svg" viewBox="0 0 974.68 391.35">
  <defs>
    <style>
      .cls-1 {
        fill: #fff;
      }
    </style>
  </defs>
  <g>
    <path class="cls-1" d="M323.52,45.07h-74.64v-26.94h181.68v26.94h-75v218.45h-32.04V45.07Z"/>
    <path class="cls-1" d="M440.39,142.28c0-20.75-.36-38.59-1.46-54.98h28.03l1.09,34.59h1.46c8.01-23.67,27.31-38.59,48.79-38.59,3.64,0,6.19.36,9.1,1.09v30.22c-3.28-.73-6.55-1.09-10.92-1.09-22.57,0-38.59,17.11-42.96,41.14-.73,4.37-1.46,9.47-1.46,14.93v93.93h-31.68v-121.24Z"/>
    <path class="cls-1" d="M573.64,181.24c.73,43.33,28.4,61.17,60.44,61.17,22.94,0,36.77-4.01,48.79-9.1l5.46,22.94c-11.29,5.1-30.58,10.92-58.62,10.92-54.25,0-86.65-35.68-86.65-88.84s31.31-95.03,82.65-95.03c57.53,0,72.82,50.61,72.82,83.01,0,6.55-.73,11.65-1.09,14.93h-123.79ZM667.58,158.3c.36-20.39-8.37-52.06-44.42-52.06-32.4,0-46.6,29.85-49.15,52.06h93.57Z"/>
    <path class="cls-1" d="M756.04,181.24c.73,43.33,28.4,61.17,60.44,61.17,22.94,0,36.77-4.01,48.79-9.1l5.46,22.94c-11.29,5.1-30.58,10.92-58.62,10.92-54.25,0-86.65-35.68-86.65-88.84s31.31-95.03,82.65-95.03c57.53,0,72.82,50.61,72.82,83.01,0,6.55-.73,11.65-1.09,14.93h-123.79ZM849.98,158.3c.36-20.39-8.37-52.06-44.42-52.06-32.4,0-46.6,29.85-49.15,52.06h93.57Z"/>
    <path class="cls-1" d="M319.48,282.95c5.13-.86,11.85-1.59,20.41-1.59,10.51,0,18.21,2.44,23.1,6.84,4.52,3.91,7.21,9.9,7.21,17.23s-2.2,13.32-6.36,17.6c-5.62,5.99-14.79,9.04-25.18,9.04-3.18,0-6.11-.12-8.56-.73v33h-10.63v-81.4ZM330.11,322.67c2.32.61,5.26.86,8.8.86,12.83,0,20.65-6.23,20.65-17.6s-7.7-16.13-19.43-16.13c-4.64,0-8.19.37-10.02.86v32.02Z"/>
    <path class="cls-1" d="M383.52,277.57h10.76v36.91h.24c1.71-3.06,4.4-5.74,7.7-7.58,3.18-1.83,6.97-3.06,11-3.06,7.94,0,20.65,4.89,20.65,25.3v35.2h-10.76v-33.98c0-9.53-3.54-17.6-13.69-17.6-6.97,0-12.47,4.89-14.42,10.76-.61,1.47-.73,3.06-.73,5.13v35.69h-10.76v-86.78Z"/>
    <path class="cls-1" d="M504.88,334.28c0,21.88-15.16,31.41-29.46,31.41-16.01,0-28.35-11.73-28.35-30.43,0-19.8,12.96-31.41,29.33-31.41s28.48,12.34,28.48,30.43ZM457.95,334.89c0,12.96,7.46,22.73,17.97,22.73s17.97-9.66,17.97-22.98c0-10.02-5.01-22.73-17.72-22.73s-18.21,11.73-18.21,22.98Z"/>
    <path class="cls-1" d="M531.4,288.2v16.99h15.4v8.19h-15.4v31.9c0,7.33,2.08,11.49,8.07,11.49,2.81,0,4.89-.37,6.23-.73l.49,8.07c-2.08.86-5.38,1.47-9.53,1.47-5.01,0-9.04-1.59-11.61-4.52-3.06-3.18-4.16-8.43-4.16-15.4v-32.27h-9.17v-8.19h9.17v-14.18l10.51-2.81Z"/>
    <path class="cls-1" d="M611.7,334.28c0,21.88-15.16,31.41-29.46,31.41-16.01,0-28.35-11.73-28.35-30.43,0-19.8,12.96-31.41,29.33-31.41s28.48,12.34,28.48,30.43ZM564.76,334.89c0,12.96,7.46,22.73,17.97,22.73s17.97-9.66,17.97-22.98c0-10.02-5.01-22.73-17.72-22.73s-18.21,11.73-18.21,22.98Z"/>
    <path class="cls-1" d="M676.23,305.19c-.24,4.28-.49,9.04-.49,16.25v34.34c0,13.57-2.69,21.88-8.43,27.01-5.74,5.38-14.05,7.09-21.51,7.09s-14.91-1.71-19.68-4.89l2.69-8.19c3.91,2.44,10.02,4.64,17.36,4.64,11,0,19.07-5.74,19.07-20.65v-6.6h-.24c-3.3,5.5-9.66,9.9-18.82,9.9-14.67,0-25.18-12.47-25.18-28.84,0-20.04,13.08-31.41,26.64-31.41,10.27,0,15.89,5.38,18.45,10.27h.24l.49-8.92h9.41ZM665.1,328.53c0-1.83-.12-3.42-.61-4.89-1.96-6.23-7.21-11.37-15.03-11.37-10.27,0-17.6,8.68-17.6,22.37,0,11.61,5.87,21.27,17.48,21.27,6.6,0,12.59-4.16,14.91-11,.61-1.83.86-3.91.86-5.74v-10.63Z"/>
    <path class="cls-1" d="M692.85,323.65c0-6.97-.12-12.95-.49-18.45h9.41l.37,11.61h.49c2.69-7.95,9.17-12.96,16.38-12.96,1.22,0,2.08.12,3.06.37v10.14c-1.1-.24-2.2-.37-3.67-.37-7.58,0-12.96,5.74-14.42,13.81-.24,1.47-.49,3.18-.49,5.01v31.53h-10.63v-40.7Z"/>
    <path class="cls-1" d="M764.96,364.34l-.86-7.46h-.37c-3.3,4.64-9.66,8.8-18.09,8.8-11.98,0-18.09-8.43-18.09-16.99,0-14.3,12.71-22.12,35.57-22v-1.22c0-4.89-1.34-13.69-13.44-13.69-5.5,0-11.24,1.71-15.4,4.4l-2.44-7.09c4.89-3.18,11.98-5.26,19.43-5.26,18.09,0,22.49,12.34,22.49,24.2v22.12c0,5.13.24,10.14.98,14.18h-9.78ZM763.37,334.16c-11.73-.24-25.05,1.83-25.05,13.32,0,6.97,4.64,10.27,10.14,10.27,7.7,0,12.59-4.89,14.3-9.9.37-1.1.61-2.32.61-3.42v-10.27Z"/>
    <path class="cls-1" d="M791.11,324.5c0-7.58-.24-13.69-.49-19.31h9.66l.49,10.14h.24c4.4-7.21,11.37-11.49,21.02-11.49,14.3,0,25.05,12.1,25.05,30.07,0,21.27-12.95,31.78-26.89,31.78-7.82,0-14.67-3.42-18.21-9.29h-.24v32.14h-10.63v-64.04ZM801.74,340.27c0,1.59.24,3.06.49,4.4,1.96,7.46,8.43,12.59,16.13,12.59,11.37,0,17.97-9.29,17.97-22.86,0-11.85-6.23-22-17.6-22-7.33,0-14.18,5.26-16.25,13.32-.37,1.34-.73,2.93-.73,4.4v10.14Z"/>
    <path class="cls-1" d="M860.65,277.57h10.75v36.91h.24c1.71-3.06,4.4-5.74,7.7-7.58,3.18-1.83,6.97-3.06,11-3.06,7.94,0,20.65,4.89,20.65,25.3v35.2h-10.75v-33.98c0-9.53-3.54-17.6-13.69-17.6-6.97,0-12.47,4.89-14.42,10.76-.61,1.47-.73,3.06-.73,5.13v35.69h-10.75v-86.78Z"/>
    <path class="cls-1" d="M930.8,305.19l12.95,34.95c1.34,3.91,2.81,8.56,3.79,12.1h.24c1.1-3.54,2.32-8.07,3.79-12.34l11.73-34.71h11.37l-16.13,42.17c-7.7,20.29-12.95,30.68-20.29,37.03-5.26,4.64-10.51,6.48-13.2,6.97l-2.69-9.04c2.69-.86,6.23-2.57,9.41-5.26,2.93-2.32,6.6-6.48,9.04-11.98.49-1.1.86-1.96.86-2.57s-.24-1.47-.73-2.81l-21.88-54.51h11.73Z"/>
  </g>
  <g>
    <path class="cls-1" d="M229.31,131.41c3.24-9.42,5.04-19.47,5.17-29.91C235.17,46.17,188.49.73,130.23,0,71.97-.71,24.19,43.57,23.5,98.9c-.11,9.21,1.11,18.14,3.46,26.65C10.81,137.81.27,157.1,0,178.95c-.41,33,22.74,60.8,53.83,67.42l-17.22-17.98-1.49-9.66,10.43,1.74,26.35,27.3c20.03-1.11,37.79-10.91,49.53-25.72l1.6-93.86,7.36-10.36,12.77,7.39-1.36,110.46c4.72,4.07,10,7.5,15.72,10.16l61.26-61.02,10.45.13-.12,9.64-56.97,56.12c4.28.9,8.7,1.41,13.23,1.46,37.59.46,68.45-29.64,68.91-67.23.27-21.54-9.52-40.86-24.98-53.53Z"/>
    <path class="cls-1" d="M141.13,261.56l.08-26.14c-4.44-1.6-7.25-3.73-9.02-5.42-2.32-2.21-3.83-4.6-7.46-6.51-1.6-.84-3.05-1.29-4.02-1.53l-.59,75.7-48.7-49.52c-1.54.1-3.1.15-4.67.14-4.59-.01-9.08-.49-13.42-1.37l67.54,69.24-2.6,61.87,24.1,1.68,2.73-102.86,26.59-26.68c-5.12-1.03-10.03-2.63-14.66-4.73l-15.89,16.13Z"/>
  </g>
</svg>